<?xml version="1.0" standalone="no"?>
<!DOCTYPE svg PUBLIC "-//W3C//DTD SVG 20010904//EN"
 "http://www.w3.org/TR/2001/REC-SVG-20010904/DTD/svg10.dtd">
<svg version="1.0" xmlns="http://www.w3.org/2000/svg"
 width="1000.000000pt" height="1000.000000pt" viewBox="0 0 1000.000000 1000.000000"
 preserveAspectRatio="xMidYMid meet">
<metadata>
Created by potrace 1.11, written by Peter Selinger 2001-2013
</metadata>
<g transform="translate(0.000000,1000.000000) scale(0.100000,-0.100000)"
fill="#000000" stroke="none">
<path d="M4749 9997 c-2 -3 -29 -7 -59 -11 -140 -15 -326 -68 -467 -132 -448
-203 -793 -611 -917 -1084 -42 -160 -51 -237 -51 -430 0 -180 12 -278 50 -422
3 -10 7 -26 9 -36 2 -10 21 -62 41 -117 87 -233 228 -447 404 -613 58 -55 215
-182 224 -182 3 0 27 -14 52 -31 121 -81 312 -160 499 -204 191 -45 463 -53
641 -20 175 34 303 75 445 143 513 245 862 739 928 1312 9 72 8 318 -2 390
-31 247 -119 482 -269 714 -58 91 -187 235 -308 343 -138 123 -459 290 -629
328 -8 2 -44 10 -80 19 -36 8 -85 18 -110 21 -54 8 -394 17 -401 12z"/>
<path d="M1509 6746 c-2 -2 -30 -6 -61 -10 -226 -23 -508 -128 -708 -262 -47
-31 -87 -59 -90 -63 -3 -3 -27 -24 -55 -46 -111 -89 -227 -217 -320 -355 -93
-139 -162 -293 -224 -505 -34 -116 -49 -251 -46 -435 2 -102 6 -198 9 -215 3
-16 13 -65 21 -108 25 -124 71 -253 140 -392 176 -353 465 -626 825 -780 93
-40 255 -90 322 -100 23 -4 45 -8 49 -10 27 -17 351 -25 472 -12 119 13 327
65 417 104 143 63 256 124 345 188 390 278 634 693 692 1170 14 119 8 347 -12
460 -80 441 -298 790 -672 1071 -140 105 -434 237 -582 260 -20 3 -39 8 -42
10 -4 2 -24 6 -45 10 -22 3 -50 8 -64 11 -31 6 -364 15 -371 9z"/>
<path d="M8228 6555 c-2 -2 -32 -5 -68 -9 -36 -3 -91 -10 -124 -16 -76 -15
-258 -69 -270 -81 -6 -5 -18 -9 -27 -9 -22 0 -228 -105 -294 -149 -259 -175
-465 -411 -587 -671 -116 -247 -161 -443 -162 -705 -2 -318 63 -565 218 -840
22 -38 44 -72 48 -73 4 -2 8 -8 8 -14 0 -16 121 -166 196 -243 90 -92 240
-215 262 -215 6 0 12 -4 14 -9 2 -5 43 -32 93 -60 151 -86 350 -157 530 -187
17 -3 41 -8 55 -10 14 -3 99 -7 190 -9 178 -4 335 14 475 55 39 11 77 22 85
24 30 8 127 48 200 83 438 211 785 644 886 1108 9 39 18 79 20 90 20 85 26
390 11 515 -11 92 -54 260 -92 361 -187 489 -587 858 -1089 1004 -49 14 -118
30 -155 35 -36 6 -77 13 -91 16 -26 6 -327 14 -332 9z"/>
<path d="M4988 3305 c-2 -1 -34 -6 -73 -9 -60 -6 -144 -21 -233 -41 -135 -31
-358 -131 -490 -219 -376 -251 -623 -616 -717 -1059 -40 -188 -40 -467 -1
-653 60 -278 165 -502 339 -719 67 -83 223 -229 320 -299 135 -97 413 -229
530 -252 10 -2 26 -5 35 -8 9 -3 31 -8 47 -11 17 -2 41 -7 55 -10 66 -14 160
-20 320 -19 165 0 191 3 369 40 70 15 230 73 326 120 91 43 264 149 285 173 3
3 21 18 40 32 50 37 178 165 225 224 22 28 43 52 46 55 4 3 33 46 66 95 119
180 216 420 248 620 4 22 9 51 11 65 3 14 7 102 9 195 4 222 -15 355 -81 555
-179 541 -624 947 -1182 1081 -46 11 -100 22 -120 25 -20 2 -48 7 -62 10 -28
5 -306 14 -312 9z"/>
</g>
</svg>
